<?xml version="1.0" encoding="UTF-8" standalone="no"?>
<svg
   width="28.586716"
   height="28.586712"
   fill="currentColor"
   class="bi bi-play-circle"
   viewBox="0 0 28.586715 28.586711"
   version="1.1"
   id="svg2"
   xmlns="http://www.w3.org/2000/svg"
   xmlns:svg="http://www.w3.org/2000/svg">
  <defs
     id="defs2" />
  <rect
     style="fill:#000000;stroke:#000000;stroke-width:0.561388;stroke-linejoin:round"
     id="rect2"
     width="28.025328"
     height="28.025324"
     x="0.28069401"
     y="0.28069401"
     ry="0" />
  <path
     d="m 15.725837,11.297949 a 0.5,0.5 0 0 1 0.52,0.038 l 3.5,2.500001 a 0.5,0.5 0 0 1 0,0.814 l -3.5,2.5 a 0.5,0.5 0 0 1 -0.791,-0.407 v -5 a 0.5,0.5 0 0 1 0.271,-0.445001"
     id="path2"
     style="fill:#ffffff;fill-opacity:1" />
  <path
     style="font-size:9.01018px;line-height:1.25;font-family:'Bauhaus 93';-inkscape-font-specification:'Bauhaus 93, ';fill:#ffffff;stroke-width:0.675765"
     d="m 5.0676872,17.29617 v -4.32911 q 0,-0.805109 0.4883447,-1.315451 0.4883448,-0.510343 1.2670567,-0.510343 0.9238954,0 1.4210392,0.849105 0.3035656,-0.45755 0.6511263,-0.651128 0.3475607,-0.197977 0.8579029,-0.197977 0.809508,0 1.24066,0.510343 0.431151,0.510342 0.431151,1.469434 V 17.29617 H 9.6387699 v -3.906758 q 0,-0.290367 -0.048395,-0.382756 -0.043995,-0.09679 -0.1847791,-0.09679 -0.2639701,0 -0.2639701,0.448749 v 3.937554 H 7.3554283 v -3.906757 q 0,-0.285967 -0.048394,-0.382756 -0.048395,-0.09679 -0.1891786,-0.09679 -0.2639701,0 -0.2639701,0.479545 v 3.906758 z m 9.2257568,-6.005321 v 6.005321 h -1.786198 v -6.005321 z"
     id="text1"
     aria-label="MI" />
  <path
     style="font-size:9.01018px;line-height:1.25;font-family:'Bauhaus 93';-inkscape-font-specification:'Bauhaus 93, ';fill:#ffffff;stroke-width:0.675765"
     d="m 22.567685,11.308446 v 6.005321 h -1.786198 v -6.005321 z"
     id="text2-9"
     aria-label="I" />
</svg>
