<?xml version="1.0" encoding="UTF-8" standalone="no"?>
<svg
   width="25.400002"
   height="25.399998"
   fill="currentColor"
   class="bi bi-play-circle"
   viewBox="0 0 25.400001 25.399997"
   version="1.1"
   id="svg2"
   xmlns="http://www.w3.org/2000/svg"
   xmlns:svg="http://www.w3.org/2000/svg">
  <defs
     id="defs2" />
  <rect
     style="fill:#000000;stroke:#000000;stroke-width:0.498807;stroke-linejoin:round"
     id="rect2"
     width="24.901194"
     height="24.90119"
     x="0.24940351"
     y="0.24940351"
     ry="0" />
  <path
     d="m 14.132479,9.7045917 a 0.5,0.5 0 0 1 0.52,0.038 l 3.5,2.5000003 a 0.5,0.5 0 0 1 0,0.814 l -3.5,2.5 a 0.5,0.5 0 0 1 -0.791,-0.407 v -5 a 0.5,0.5 0 0 1 0.271,-0.4450003"
     id="path2"
     style="fill:#ffffff;fill-opacity:1" />
  <path
     style="font-size:9.01018px;line-height:1.25;font-family:'Bauhaus 93';-inkscape-font-specification:'Bauhaus 93, ';fill:#ffffff;stroke-width:0.675765"
     d="m 3.4743294,15.702812 v -4.32911 q 0,-0.805109 0.4883447,-1.315451 0.4883448,-0.5103423 1.2670567,-0.5103423 0.9238954,0 1.4210392,0.8491043 0.3035656,-0.4575493 0.6511263,-0.6511273 0.3475607,-0.197977 0.8579029,-0.197977 0.8095084,0 1.2406596,0.5103423 0.4311509,0.510342 0.4311509,1.469434 v 4.175127 H 8.0454121 v -3.906758 q 0,-0.290367 -0.048395,-0.382756 -0.043995,-0.09679 -0.1847791,-0.09679 -0.2639701,0 -0.2639701,0.448749 v 3.937554 H 5.7620705 v -3.906757 q 0,-0.285967 -0.048394,-0.382756 -0.048395,-0.09679 -0.1891786,-0.09679 -0.2639701,0 -0.2639701,0.479545 v 3.906758 z M 12.700086,9.6974917 V 15.702812 H 10.913888 V 9.6974917 Z"
     id="text1"
     aria-label="MI" />
  <path
     style="font-size:9.01018px;line-height:1.25;font-family:'Bauhaus 93';-inkscape-font-specification:'Bauhaus 93, ';fill:#ffffff;stroke-width:0.675765"
     d="M 20.974327,9.7150887 V 15.720409 H 19.188129 V 9.7150887 Z"
     id="text2-9"
     aria-label="I" />
</svg>
